<svg xmlns="http://www.w3.org/2000/svg" width="512" height="512" viewBox="0 0 375 375" preserveAspectRatio="xMidYMid meet" version="1.0">
  <rect width="100%" height="100%" fill="black" />
  <defs><g/></defs>
  <!-- Yellow "P" -->
  <g fill="#ffde59" fill-opacity="1">
    <g transform="translate(100, 300) scale(6)">
      <path d="M 10.5 -12.15625 L 10.5 0 L 3 0 L 3 -34 L 15.75 -34 C 17.582031 -34 19.289062 -33.539062 20.875 -32.625 C 22.457031 -31.707031 23.734375 -30.429688 24.703125 -28.796875 C 25.671875 -27.160156 26.15625 -25.257812 26.15625 -23.09375 C 26.15625 -20.800781 25.671875 -18.835938 24.703125 -17.203125 C 23.734375 -15.566406 22.457031 -14.316406 20.875 -13.453125 C 19.289062 -12.585938 17.582031 -12.15625 15.75 -12.15625 Z M 14.5 -28.09375 L 10.5 -28.09375 L 10.5 -18.046875 L 14.5 -18.046875 C 15.601562 -18.046875 16.628906 -18.476562 17.578125 -19.34375 C 18.523438 -20.21875 19 -21.46875 19 -23.09375 C 19 -24.664062 18.523438 -25.890625 17.578125 -26.765625 C 16.628906 -27.648438 15.601562 -28.09375 14.5 -28.09375 Z"/>
    </g>
  </g>

  <!-- White "J" -->
  <g fill="#ffffff" fill-opacity="1">
    <g transform="translate(210, 300) scale(6)">
      <path d="M 5.796875 -6.703125 C 7.597656 -6.703125 8.878906 -7.007812 9.640625 -7.625 C 10.410156 -8.238281 10.882812 -9.050781 11.0625 -10.0625 C 11.25 -11.082031 11.34375 -12.175781 11.34375 -13.34375 L 11.34375 -34 L 18.84375 -34 L 18.84375 -12.75 C 18.84375 -9.519531 18.316406 -6.9375 17.265625 -5 C 16.222656 -3.0625 14.734375 -1.660156 12.796875 -0.796875 C 10.867188 0.0664062 8.535156 0.5 5.796875 0.5 C 4.929688 0.5 4.097656 0.445312 3.296875 0.34375 C 2.492188 0.25 1.726562 0.117188 1 -0.046875 L 1 -9.203125 L 1.15625 -9.203125 C 2.019531 -7.535156 3.566406 -6.703125 5.796875 -6.703125 Z"/>
    </g>
  </g>
</svg>
